# xmcd
#
# Track frame offsets:
#	150
#	12043
#	20674
#	34509
#	56037
#	72901
#	89742
#	115994
#	130568
#	148077
#	167258
#	183936
#	199356
#
# Disc length: 3007 seconds
#
# Revision: 5
# Processed by: cddbd v1.5.2PL0 Copyright (c) Steve Scherf et al.
# Submitted via: EasyCDDAExtractor 10.2.0.1
#
DISCID=b00bbd0d
DTITLE=Various Artist - Az utolso
DYEAR=1900
DGENRE=Blues
TTITLE0=Johannes Brahms - Magyar táncok No. 5.
TTITLE1=Vittorio Monti - Csárdás (intro)
TTITLE2=Vittorio Monti - Csárdás
TTITLE3=Molnár László, Holló József - Talány
TTITLE4=Wolfgang Amadeus Mozart - Török induló
TTITLE5=Holló József - Ír partokon
TTITLE6=Liszt Ferenc - Magyar rapszódia No. 2.
TTITLE7=Johannes Brahms - Magyar táncok No. 1.
TTITLE8=Holló József - Titkok
TTITLE9=Wolfgang Amadeus Mozart - Egy kis éji zene
TTITLE10=Holló József - Huza-vona
TTITLE11=Holló József - A szív dolgai
TTITLE12=Johannes Brahms, Holló József, Molnár László - Magyar táncok No. 5. P
TTITLE12=rincess Clubmix
EXTD=
EXTT0=
EXTT1=
EXTT2=
EXTT3=
EXTT4=
EXTT5=
EXTT6=
EXTT7=
EXTT8=
EXTT9=
EXTT10=
EXTT11=
EXTT12=
PLAYORDER=
